# xmcd CD database file
#
# Track frame offsets:
#	150
#	19380
#	42407
#	59170
#	78400
#	112677
#
# Disc length: 4440 seconds
#
# Revision: 4
# Processed by: cddbd v1.5.2PL0 Copyright (c) Steve Scherf et al.
# Submitted via: CDex 1.70beta3
#
DISCID=4a115606
DTITLE=下川みくに - TRUE/たった、ひとつの
DYEAR=2002
DGENRE=JPop
TTITLE0=TRUE
TTITLE1=たった、ひとつの
TTITLE2=キミと二人
TTITLE3=TRUE～Instrumental～
TTITLE4=たった、ひとつの～Instrumental～
TTITLE5=データ
EXTD=YEAR: 2002
EXTT0=
EXTT1=
EXTT2=
EXTT3=
EXTT4=
EXTT5=
PLAYORDER=
